<svg viewBox="0 0 256 256" fill="none" xmlns="http://www.w3.org/2000/svg">
	<style>
		#mrt-red { color: #9B1C24; }
		#secondary { fill: #000;}
		@media (prefers-color-scheme: dark) {
		#mrt-red { color: #D21E26; }
		#secondary { fill: #FFF; }
		}
</style>
	<g clip-path="url(#clip0_144_3)">
		<path id="secondary" fill-rule="evenodd" clip-rule="evenodd"
			d="M93.5274 81.0963C91.6652 92.5971 89.857 122.649 88.2902 168.138C88.173 171.542 88.0239 173.535 87.8799 173.625C87.7556 173.702 85.457 173.933 82.7721 174.14C65.0454 175.499 38.5956 178.26 25.7887 180.087C13.3332 181.864 0.342576 183.974 0.0494656 184.269C0.0077424 184.311 0.00312978 184.716 0.039192 185.169L0.104817 185.992L3.35461 185.407C25.6224 181.396 60.2627 178.023 90.837 176.89L94.7682 176.744L94.7957 132.476C94.8112 107.717 94.9003 88.8572 94.9978 89.6821C96.1134 99.1121 97.8379 129.149 98.9533 158.579C99.1818 164.605 99.4307 171.123 99.5064 173.064L99.6442 176.593H100.155H100.666L100.541 173.907C100.473 172.43 100.228 166.148 99.9991 159.948C98.5824 121.661 96.5875 90.4461 94.9529 80.991C94.7508 79.8223 94.6707 79.6742 94.2415 79.6742C93.8069 79.6742 93.7343 79.8185 93.5274 81.0963Z"
			fill="currentColor" />
		<path id="mrt-red" fill-rule="evenodd" clip-rule="evenodd"
			d="M93.5164 69.9011C92.4582 71.5781 91.0186 75.8094 90.9979 77.3039C90.991 77.8116 91.9837 77.5599 93.1086 76.7687L94.2441 75.97L95.3807 76.7687C96.0057 77.2078 96.7458 77.5672 97.0253 77.5672C97.5174 77.5672 97.5285 77.5329 97.3823 76.4611C97.0844 74.2773 95.3329 69.8725 94.4791 69.1606C94.2011 68.9288 94.0632 69.0348 93.5164 69.9011ZM189.008 103.355C188.143 103.734 187.068 105.013 186.914 105.848C186.844 106.227 186.816 108.868 186.851 111.716L186.916 116.896L187.52 117.691C188.597 119.109 188.252 119.074 201.166 119.074H212.809V148.255V177.436H213.36C214.176 177.436 227.846 178.464 229.006 178.612L230.002 178.74V148.907V119.074H241.817H253.632L254.339 118.595C254.728 118.331 255.261 117.796 255.523 117.405C255.99 116.709 256 116.571 256 111.068V105.442L255.392 104.599C254.195 102.939 256.904 103.06 221.349 103.069C195.618 103.076 189.522 103.13 189.008 103.355ZM11.8461 103.471C11.2705 103.706 10.2637 104.748 10.0392 105.34C9.93476 105.615 9.85425 122.525 9.85425 144.177V182.526L10.4308 182.406C11.8077 182.119 26.3118 179.964 26.8651 179.964C26.9639 179.964 27.0687 170.9 27.0981 159.821L27.1515 139.677L35.2236 153.732C39.6633 161.462 43.6523 168.198 44.088 168.7C45.6469 170.497 45.9102 170.579 50.4243 170.662C53.0497 170.711 54.7975 170.649 55.5506 170.48C57.6365 170.012 57.9282 169.588 66.8381 154.089L74.8527 140.146L74.799 123.56L74.7453 106.974L63.0096 127.458C56.5549 138.725 51.199 147.917 51.1074 147.887C51.0157 147.856 45.6196 138.54 39.116 127.184C26.7758 105.638 25.925 104.292 24.181 103.559C23.6569 103.339 22.1758 103.275 17.8806 103.285C14.7923 103.293 12.0767 103.376 11.8461 103.471ZM104.867 103.443C104.906 103.537 106.918 107.138 109.34 111.444L113.743 119.275L127.501 119.28C138.865 119.284 141.583 119.34 143.121 119.606C148.062 120.459 150.917 122.107 152.195 124.845C153.091 126.765 153.359 128.173 153.359 130.978C153.359 133.781 153.091 135.191 152.197 137.107C150.641 140.441 146.617 142.382 140.23 142.881C138.808 142.992 135.309 143.086 132.455 143.088C129.601 143.091 127.266 143.127 127.266 143.169C127.266 143.211 129.354 146.933 131.906 151.439C134.458 155.945 138.491 163.104 140.869 167.346L145.193 175.06L154.795 175.219C160.077 175.307 164.429 175.343 164.467 175.301C164.505 175.259 162.19 171.007 159.322 165.852L154.107 156.481L156.018 155.583C164.561 151.57 169.499 144.274 170.468 134.234C171.001 128.711 170.122 122.692 168.14 118.284C167.814 117.559 167.037 116.18 166.414 115.218C162.104 108.575 154.716 104.599 144.624 103.495C142.207 103.23 104.76 103.181 104.867 103.443Z"
			fill="currentColor" />
	</g>
	<defs>
		<clipPath id="clip0_144_3">
			<rect width="256" height="117" fill="white" transform="translate(0 69)" />
		</clipPath>
	</defs>
</svg>
