<svg width="794" height="135" viewBox="0 0 794 135" fill="none" xmlns="http://www.w3.org/2000/svg">
	<style>
		#mrt-red { fill: #9B1C24; }
		#secondary { fill: #525252;}
		@media (prefers-color-scheme: dark) {
		#mrt-red { fill: #D21E26; }
		#secondary { fill: #A1A1A1; }
		}
	</style>
	<g clip-path="url(#clip0_33_336)">
		<path fill-rule="evenodd" clip-rule="evenodd"
			d="M92.5672 20.6489C90.9232 30.7735 89.3269 57.2296 87.9437 97.2756C87.8402 100.272 87.7086 102.027 87.5815 102.105C87.4717 102.173 85.4425 102.377 83.0722 102.559C67.4229 103.756 44.0727 106.186 32.7666 107.794C21.7707 109.359 10.3024 111.217 10.0437 111.476C10.0068 111.513 10.0028 111.869 10.0346 112.268L10.0925 112.993L12.9615 112.478C32.6198 108.947 63.2007 105.978 90.1921 104.98L93.6626 104.852L93.6868 65.8803C93.7005 44.0841 93.7792 27.4812 93.8652 28.2073C94.8501 36.509 96.3725 62.9515 97.3572 88.8601C97.559 94.1649 97.7787 99.9034 97.8455 101.612L97.9671 104.719H98.4182H98.8695L98.7591 102.354C98.6984 101.053 98.483 95.5236 98.2805 90.0657C97.0298 56.3599 95.2686 28.8799 93.8256 20.5562C93.6472 19.5273 93.5765 19.3969 93.1976 19.3969C92.8139 19.3969 92.7499 19.524 92.5672 20.6489Z"
			id="secondary" />
		<path fill-rule="evenodd" clip-rule="evenodd"
			d="M92.5574 10.7933C91.6232 12.2696 90.3523 15.9946 90.334 17.3102C90.3279 17.7572 91.2043 17.5356 92.1974 16.8391L93.1998 16.1359L94.2032 16.8391C94.755 17.2256 95.4084 17.5421 95.6551 17.5421C96.0895 17.5421 96.0993 17.5118 95.9703 16.5683C95.7073 14.6458 94.161 10.7681 93.4073 10.1413C93.1619 9.9373 93.0401 10.0306 92.5574 10.7933ZM176.859 40.244C176.095 40.5777 175.146 41.704 175.01 42.4392C174.948 42.7729 174.923 45.0975 174.954 47.6051L175.011 52.1644L175.545 52.8646C176.496 54.1129 176.191 54.0821 187.592 54.0821H197.871V79.7714V105.461H198.357C199.077 105.461 211.146 106.366 212.169 106.496L213.048 106.609V80.3453V54.0821H223.479H233.909L234.534 53.6603C234.877 53.4285 235.348 52.957 235.579 52.6127C235.991 52.0006 236 51.8786 236 47.0342V42.0814L235.464 41.3393C234.407 39.8775 236.798 39.9845 205.409 39.9927C182.694 39.9986 177.312 40.0459 176.859 40.244ZM20.4578 40.3458C19.9497 40.5534 19.0609 41.4706 18.8627 41.9914C18.7705 42.2339 18.6994 57.1207 18.6994 76.1814V109.942L19.2084 109.836C20.4239 109.584 33.2284 107.687 33.7169 107.687C33.804 107.687 33.8966 99.7065 33.9225 89.9531L33.9697 72.2195L41.0958 84.5929C45.0152 91.3982 48.5368 97.3281 48.9214 97.7703C50.2976 99.3521 50.5301 99.4239 54.5152 99.4975C56.8329 99.5404 58.3759 99.4856 59.0407 99.3369C60.8822 98.9249 61.1397 98.5519 69.0054 84.9071L76.0808 72.633L76.0335 58.0314L75.9861 43.4299L65.6256 61.463C59.9273 71.3815 55.1991 79.4743 55.1182 79.4474C55.0373 79.4203 50.2735 71.2188 44.5321 61.2221C33.638 42.2537 32.8869 41.0689 31.3473 40.4241C30.8845 40.2305 29.577 40.1737 25.7852 40.1826C23.0588 40.1891 20.6614 40.2626 20.4578 40.3458ZM102.578 40.3216C102.612 40.4045 104.389 43.5744 106.527 47.3656L110.414 54.2593L122.559 54.2633C132.592 54.2669 134.991 54.3168 136.349 54.5507C140.711 55.3019 143.231 56.7527 144.36 59.163C145.151 60.8528 145.387 62.0927 145.387 64.5619C145.387 67.0297 145.151 68.271 144.361 69.9574C142.987 72.8923 139.435 74.6015 133.797 75.0409C132.541 75.1386 129.453 75.2206 126.933 75.2229C124.414 75.2253 122.352 75.2574 122.352 75.2944C122.352 75.3314 124.195 78.6075 126.448 82.5746C128.701 86.5417 132.262 92.8435 134.361 96.5784L138.178 103.369L146.655 103.509C151.318 103.586 155.16 103.619 155.194 103.581C155.227 103.544 153.183 99.8006 150.651 95.2631L146.048 87.013L147.735 86.2227C155.277 82.6894 159.636 76.2666 160.491 67.4278C160.961 62.5661 160.186 57.267 158.436 53.3864C158.148 52.7485 157.463 51.5341 156.912 50.6874C153.108 44.8392 146.585 41.3397 137.676 40.3672C135.542 40.1342 102.484 40.0914 102.578 40.3216Z"
			id="mrt-red" />
	</g>
	<rect x="261" y="10" width="1" height="115" id="secondary" />
	<path
		d="M288.52 50.5V35.9H290.88L292.4 40.62C292.547 41.0467 292.68 41.4733 292.8 41.9C292.92 42.3133 293.007 42.6333 293.06 42.86C293.127 42.6333 293.213 42.3133 293.32 41.9C293.427 41.4733 293.547 41.04 293.68 40.6L295.12 35.9H297.48V50.5H295.72V45.2C295.72 44.6133 295.74 43.9467 295.78 43.2C295.82 42.4533 295.873 41.6933 295.94 40.92C296.007 40.1333 296.073 39.3867 296.14 38.68C296.22 37.96 296.287 37.3333 296.34 36.8L293.98 44.1H292.08L289.7 36.8C289.767 37.32 289.833 37.9267 289.9 38.62C289.967 39.3 290.027 40.0267 290.08 40.8C290.133 41.56 290.18 42.32 290.22 43.08C290.26 43.84 290.28 44.5467 290.28 45.2V50.5H288.52ZM305.072 50.7C304.192 50.7 303.426 50.5333 302.772 50.2C302.132 49.8667 301.632 49.3867 301.272 48.76C300.926 48.12 300.752 47.3667 300.752 46.5V39.9C300.752 39.02 300.926 38.2667 301.272 37.64C301.632 37.0133 302.132 36.5333 302.772 36.2C303.426 35.8667 304.192 35.7 305.072 35.7C305.952 35.7 306.712 35.8733 307.352 36.22C307.992 36.5533 308.486 37.0333 308.832 37.66C309.179 38.2867 309.352 39.0333 309.352 39.9H307.552C307.552 39.0733 307.332 38.44 306.892 38C306.466 37.5467 305.859 37.32 305.072 37.32C304.286 37.32 303.666 37.54 303.212 37.98C302.772 38.42 302.552 39.0533 302.552 39.88V46.5C302.552 47.3267 302.772 47.9667 303.212 48.42C303.666 48.86 304.286 49.08 305.072 49.08C305.859 49.08 306.466 48.86 306.892 48.42C307.332 47.9667 307.552 47.3267 307.552 46.5H309.352C309.352 47.3533 309.179 48.1 308.832 48.74C308.486 49.3667 307.992 49.8533 307.352 50.2C306.712 50.5333 305.952 50.7 305.072 50.7ZM317.064 50.7C316.184 50.7 315.418 50.5333 314.764 50.2C314.124 49.8667 313.624 49.3867 313.264 48.76C312.918 48.12 312.744 47.3667 312.744 46.5V39.9C312.744 39.02 312.918 38.2667 313.264 37.64C313.624 37.0133 314.124 36.5333 314.764 36.2C315.418 35.8667 316.184 35.7 317.064 35.7C317.944 35.7 318.704 35.8733 319.344 36.22C319.984 36.5533 320.478 37.0333 320.824 37.66C321.171 38.2867 321.344 39.0333 321.344 39.9H319.544C319.544 39.0733 319.324 38.44 318.884 38C318.458 37.5467 317.851 37.32 317.064 37.32C316.278 37.32 315.658 37.54 315.204 37.98C314.764 38.42 314.544 39.0533 314.544 39.88V46.5C314.544 47.3267 314.764 47.9667 315.204 48.42C315.658 48.8733 316.278 49.1 317.064 49.1C317.851 49.1 318.458 48.8733 318.884 48.42C319.324 47.9667 319.544 47.3267 319.544 46.5V44.7H316.584V43.06H321.344V46.5C321.344 47.3533 321.171 48.1 320.824 48.74C320.478 49.3667 319.984 49.8533 319.344 50.2C318.704 50.5333 317.944 50.7 317.064 50.7ZM325.077 50.5V48.86H328.057V37.54H325.077V35.9H332.877V37.54H329.897V48.86H332.877V50.5H325.077ZM337.269 50.5V35.9H339.069V48.86H345.669V50.5H337.269ZM349.261 50.5V35.9H351.061V48.86H357.661V50.5H349.261ZM372.785 50.5V35.9H377.305C378.172 35.9 378.932 36.08 379.585 36.44C380.239 36.7867 380.745 37.2733 381.105 37.9C381.465 38.5267 381.645 39.26 381.645 40.1C381.645 41.0867 381.385 41.9333 380.865 42.64C380.359 43.3467 379.665 43.8333 378.785 44.1L381.845 50.5H379.725L376.925 44.3H374.585V50.5H372.785ZM374.585 42.68H377.305C378.052 42.68 378.652 42.4467 379.105 41.98C379.559 41.5 379.785 40.8733 379.785 40.1C379.785 39.3133 379.559 38.6867 379.105 38.22C378.652 37.7533 378.052 37.52 377.305 37.52H374.585V42.68ZM388.938 50.7C388.058 50.7 387.298 50.5333 386.658 50.2C386.031 49.8667 385.544 49.3867 385.198 48.76C384.864 48.12 384.698 47.3667 384.698 46.5V39.9C384.698 39.02 384.864 38.2667 385.198 37.64C385.544 37.0133 386.031 36.5333 386.658 36.2C387.298 35.8667 388.058 35.7 388.938 35.7C389.818 35.7 390.571 35.8667 391.198 36.2C391.838 36.5333 392.324 37.0133 392.658 37.64C393.004 38.2667 393.178 39.0133 393.178 39.88V46.5C393.178 47.3667 393.004 48.12 392.658 48.76C392.324 49.3867 391.838 49.8667 391.198 50.2C390.571 50.5333 389.818 50.7 388.938 50.7ZM388.938 49.08C389.724 49.08 390.324 48.86 390.738 48.42C391.164 47.9667 391.378 47.3267 391.378 46.5V39.9C391.378 39.0733 391.164 38.44 390.738 38C390.324 37.5467 389.724 37.32 388.938 37.32C388.164 37.32 387.564 37.5467 387.138 38C386.711 38.44 386.498 39.0733 386.498 39.9V46.5C386.498 47.3267 386.711 47.9667 387.138 48.42C387.564 48.86 388.164 49.08 388.938 49.08ZM401.01 50.7C400.13 50.7 399.363 50.5333 398.71 50.2C398.07 49.8667 397.57 49.3867 397.21 48.76C396.863 48.12 396.69 47.3667 396.69 46.5V39.9C396.69 39.02 396.863 38.2667 397.21 37.64C397.57 37.0133 398.07 36.5333 398.71 36.2C399.363 35.8667 400.13 35.7 401.01 35.7C401.89 35.7 402.65 35.8733 403.29 36.22C403.93 36.5533 404.423 37.0333 404.77 37.66C405.116 38.2867 405.29 39.0333 405.29 39.9H403.49C403.49 39.0733 403.27 38.44 402.83 38C402.403 37.5467 401.796 37.32 401.01 37.32C400.223 37.32 399.603 37.54 399.15 37.98C398.71 38.42 398.49 39.0533 398.49 39.88V46.5C398.49 47.3267 398.71 47.9667 399.15 48.42C399.603 48.86 400.223 49.08 401.01 49.08C401.796 49.08 402.403 48.86 402.83 48.42C403.27 47.9667 403.49 47.3267 403.49 46.5H405.29C405.29 47.3533 405.116 48.1 404.77 48.74C404.423 49.3667 403.93 49.8533 403.29 50.2C402.65 50.5333 401.89 50.7 401.01 50.7ZM408.762 50.5V35.9H410.562V42.16H412.722L415.962 35.9H417.922L414.302 42.92L418.122 50.5H416.062L412.662 43.74H410.562V50.5H408.762ZM420.914 50.5V35.9H429.314V37.54H422.694V42.06H428.614V43.68H422.694V48.86H429.314V50.5H420.914ZM436.006 50.5V37.52H432.006V35.88H441.806V37.52H437.806V50.5H436.006ZM459.991 50.5V37.52H455.991V35.88H465.791V37.52H461.791V50.5H459.991ZM467.883 50.5L471.683 35.9H474.103L477.883 50.5H476.063L475.103 46.62H470.683L469.723 50.5H467.883ZM471.043 45.1H474.723L473.603 40.6C473.389 39.7467 473.223 39.0333 473.103 38.46C472.983 37.8867 472.909 37.5133 472.883 37.34C472.856 37.5133 472.783 37.8867 472.663 38.46C472.543 39.0333 472.376 39.74 472.163 40.58L471.043 45.1ZM480.875 50.5V35.9H489.275V37.54H482.655V42.06H488.575V43.68H482.655V48.86H489.275V50.5H480.875ZM492.387 50.5V35.9H494.747L496.267 40.62C496.414 41.0467 496.547 41.4733 496.667 41.9C496.787 42.3133 496.874 42.6333 496.927 42.86C496.994 42.6333 497.081 42.3133 497.187 41.9C497.294 41.4733 497.414 41.04 497.547 40.6L498.987 35.9H501.347V50.5H499.587V45.2C499.587 44.6133 499.607 43.9467 499.647 43.2C499.687 42.4533 499.741 41.6933 499.807 40.92C499.874 40.1333 499.941 39.3867 500.007 38.68C500.087 37.96 500.154 37.3333 500.207 36.8L497.847 44.1H495.947L493.567 36.8C493.634 37.32 493.701 37.9267 493.767 38.62C493.834 39.3 493.894 40.0267 493.947 40.8C494.001 41.56 494.047 42.32 494.087 43.08C494.127 43.84 494.147 44.5467 494.147 45.2V50.5H492.387Z"
		id="mrt-red" />
	<path
		d="M297.944 93.86C296.36 93.86 294.98 93.56 293.804 92.96C292.652 92.36 291.752 91.496 291.104 90.368C290.48 89.216 290.168 87.86 290.168 86.3V74.42C290.168 72.836 290.48 71.48 291.104 70.352C291.752 69.224 292.652 68.36 293.804 67.76C294.98 67.16 296.36 66.86 297.944 66.86C299.528 66.86 300.896 67.172 302.048 67.796C303.2 68.396 304.088 69.26 304.712 70.388C305.336 71.516 305.648 72.86 305.648 74.42H302.408C302.408 72.932 302.012 71.792 301.22 71C300.452 70.184 299.36 69.776 297.944 69.776C296.528 69.776 295.412 70.172 294.596 70.964C293.804 71.756 293.408 72.896 293.408 74.384V86.3C293.408 87.788 293.804 88.94 294.596 89.756C295.412 90.572 296.528 90.98 297.944 90.98C299.36 90.98 300.452 90.572 301.22 89.756C302.012 88.94 302.408 87.788 302.408 86.3V83.06H297.08V80.108H305.648V86.3C305.648 87.836 305.336 89.18 304.712 90.332C304.088 91.46 303.2 92.336 302.048 92.96C300.896 93.56 299.528 93.86 297.944 93.86ZM311.898 93.5V67.22H320.034C321.594 67.22 322.962 67.544 324.138 68.192C325.314 68.816 326.226 69.692 326.874 70.82C327.522 71.948 327.846 73.268 327.846 74.78C327.846 76.556 327.378 78.08 326.442 79.352C325.53 80.624 324.282 81.5 322.698 81.98L328.206 93.5H324.39L319.35 82.34H315.138V93.5H311.898ZM315.138 79.424H320.034C321.378 79.424 322.458 79.004 323.274 78.164C324.09 77.3 324.498 76.172 324.498 74.78C324.498 73.364 324.09 72.236 323.274 71.396C322.458 70.556 321.378 70.136 320.034 70.136H315.138V79.424ZM340.972 93.86C339.388 93.86 338.02 93.56 336.868 92.96C335.74 92.36 334.864 91.496 334.24 90.368C333.64 89.216 333.34 87.86 333.34 86.3V74.42C333.34 72.836 333.64 71.48 334.24 70.352C334.864 69.224 335.74 68.36 336.868 67.76C338.02 67.16 339.388 66.86 340.972 66.86C342.556 66.86 343.912 67.16 345.04 67.76C346.192 68.36 347.068 69.224 347.668 70.352C348.292 71.48 348.604 72.824 348.604 74.384V86.3C348.604 87.86 348.292 89.216 347.668 90.368C347.068 91.496 346.192 92.36 345.04 92.96C343.912 93.56 342.556 93.86 340.972 93.86ZM340.972 90.944C342.388 90.944 343.468 90.548 344.212 89.756C344.98 88.94 345.364 87.788 345.364 86.3V74.42C345.364 72.932 344.98 71.792 344.212 71C343.468 70.184 342.388 69.776 340.972 69.776C339.58 69.776 338.5 70.184 337.732 71C336.964 71.792 336.58 72.932 336.58 74.42V86.3C336.58 87.788 336.964 88.94 337.732 89.756C338.5 90.548 339.58 90.944 340.972 90.944ZM362.558 93.86C360.11 93.86 358.238 93.188 356.942 91.844C355.646 90.476 354.998 88.628 354.998 86.3V67.22H358.238V86.3C358.238 87.74 358.586 88.88 359.282 89.72C360.002 90.56 361.094 90.98 362.558 90.98C363.998 90.98 365.078 90.56 365.798 89.72C366.518 88.88 366.878 87.74 366.878 86.3V67.22H370.118V86.3C370.118 88.652 369.47 90.5 368.174 91.844C366.902 93.188 365.03 93.86 362.558 93.86ZM376.584 93.5V67.22H380.904L388.932 89.72C388.884 89.12 388.824 88.388 388.752 87.524C388.704 86.636 388.656 85.712 388.608 84.752C388.584 83.768 388.572 82.844 388.572 81.98V67.22H391.704V93.5H387.384L379.392 71C379.44 71.576 379.488 72.308 379.536 73.196C379.584 74.06 379.62 74.984 379.644 75.968C379.692 76.928 379.716 77.852 379.716 78.74V93.5H376.584ZM398.242 93.5V67.22H405.046C406.75 67.22 408.214 67.544 409.438 68.192C410.686 68.84 411.646 69.752 412.318 70.928C413.014 72.104 413.362 73.496 413.362 75.104V85.58C413.362 87.188 413.014 88.592 412.318 89.792C411.646 90.968 410.686 91.88 409.438 92.528C408.214 93.176 406.75 93.5 405.046 93.5H398.242ZM401.482 90.62H405.046C406.63 90.62 407.866 90.176 408.754 89.288C409.666 88.4 410.122 87.164 410.122 85.58V75.104C410.122 73.544 409.666 72.32 408.754 71.432C407.866 70.544 406.63 70.1 405.046 70.1H401.482V90.62ZM449.046 93.86C447.318 93.86 445.83 93.572 444.582 92.996C443.358 92.42 442.41 91.592 441.738 90.512C441.066 89.432 440.718 88.148 440.694 86.66H443.934C443.934 87.98 444.378 89.024 445.266 89.792C446.178 90.56 447.438 90.944 449.046 90.944C450.558 90.944 451.734 90.572 452.574 89.828C453.438 89.084 453.87 88.052 453.87 86.732C453.87 85.676 453.582 84.752 453.006 83.96C452.454 83.168 451.65 82.616 450.594 82.304L447.03 81.188C445.23 80.636 443.838 79.712 442.854 78.416C441.894 77.12 441.414 75.596 441.414 73.844C441.414 72.428 441.726 71.204 442.35 70.172C442.998 69.116 443.898 68.3 445.05 67.724C446.202 67.124 447.558 66.824 449.118 66.824C451.422 66.824 453.27 67.472 454.662 68.768C456.054 70.04 456.762 71.744 456.786 73.88H453.546C453.546 72.584 453.15 71.576 452.358 70.856C451.59 70.112 450.498 69.74 449.082 69.74C447.69 69.74 446.598 70.076 445.806 70.748C445.038 71.42 444.654 72.356 444.654 73.556C444.654 74.636 444.942 75.572 445.518 76.364C446.094 77.156 446.922 77.72 448.002 78.056L451.602 79.208C453.354 79.76 454.71 80.696 455.67 82.016C456.63 83.336 457.11 84.884 457.11 86.66C457.11 88.1 456.774 89.36 456.102 90.44C455.43 91.52 454.482 92.36 453.258 92.96C452.058 93.56 450.654 93.86 449.046 93.86ZM468.868 93.5V70.136H461.668V67.184H479.308V70.136H472.108V93.5H468.868ZM483.073 93.5L489.913 67.22H494.269L501.073 93.5H497.797L496.069 86.516H488.113L486.385 93.5H483.073ZM488.761 83.78H495.385L493.369 75.68C492.985 74.144 492.685 72.86 492.469 71.828C492.253 70.796 492.121 70.124 492.073 69.812C492.025 70.124 491.893 70.796 491.677 71.828C491.461 72.86 491.161 74.132 490.777 75.644L488.761 83.78ZM512.039 93.5V70.136H504.839V67.184H522.479V70.136H515.279V93.5H512.039ZM528.225 93.5V90.548H533.589V70.172H528.225V67.22H542.265V70.172H536.901V90.548H542.265V93.5H528.225ZM556.831 93.86C555.247 93.86 553.879 93.56 552.727 92.96C551.599 92.36 550.723 91.496 550.099 90.368C549.499 89.216 549.199 87.86 549.199 86.3V74.42C549.199 72.836 549.499 71.48 550.099 70.352C550.723 69.224 551.599 68.36 552.727 67.76C553.879 67.16 555.247 66.86 556.831 66.86C558.415 66.86 559.771 67.16 560.899 67.76C562.051 68.36 562.927 69.224 563.527 70.352C564.151 71.48 564.463 72.824 564.463 74.384V86.3C564.463 87.86 564.151 89.216 563.527 90.368C562.927 91.496 562.051 92.36 560.899 92.96C559.771 93.56 558.415 93.86 556.831 93.86ZM556.831 90.944C558.247 90.944 559.327 90.548 560.071 89.756C560.839 88.94 561.223 87.788 561.223 86.3V74.42C561.223 72.932 560.839 71.792 560.071 71C559.327 70.184 558.247 69.776 556.831 69.776C555.439 69.776 554.359 70.184 553.591 71C552.823 71.792 552.439 72.932 552.439 74.42V86.3C552.439 87.788 552.823 88.94 553.591 89.756C554.359 90.548 555.439 90.944 556.831 90.944ZM570.857 93.5V67.22H575.177L583.205 89.72C583.157 89.12 583.097 88.388 583.025 87.524C582.977 86.636 582.929 85.712 582.881 84.752C582.857 83.768 582.845 82.844 582.845 81.98V67.22H585.977V93.5H581.657L573.665 71C573.713 71.576 573.761 72.308 573.809 73.196C573.857 74.06 573.893 74.984 573.917 75.968C573.965 76.928 573.989 77.852 573.989 78.74V93.5H570.857ZM613.525 93.5V67.22H617.773L620.509 75.716C620.773 76.484 621.013 77.252 621.229 78.02C621.445 78.764 621.601 79.34 621.697 79.748C621.817 79.34 621.973 78.764 622.165 78.02C622.357 77.252 622.573 76.472 622.813 75.68L625.405 67.22H629.653V93.5H626.485V83.96C626.485 82.904 626.521 81.704 626.593 80.36C626.665 79.016 626.761 77.648 626.881 76.256C627.001 74.84 627.121 73.496 627.241 72.224C627.385 70.928 627.505 69.8 627.601 68.84L623.353 81.98H619.933L615.649 68.84C615.769 69.776 615.889 70.868 616.009 72.116C616.129 73.34 616.237 74.648 616.333 76.04C616.429 77.408 616.513 78.776 616.585 80.144C616.657 81.512 616.693 82.784 616.693 83.96V93.5H613.525ZM643.175 93.86C641.591 93.86 640.223 93.56 639.071 92.96C637.943 92.36 637.067 91.496 636.443 90.368C635.843 89.216 635.543 87.86 635.543 86.3V74.42C635.543 72.836 635.843 71.48 636.443 70.352C637.067 69.224 637.943 68.36 639.071 67.76C640.223 67.16 641.591 66.86 643.175 66.86C644.759 66.86 646.115 67.16 647.243 67.76C648.395 68.36 649.271 69.224 649.871 70.352C650.495 71.48 650.807 72.824 650.807 74.384V86.3C650.807 87.86 650.495 89.216 649.871 90.368C649.271 91.496 648.395 92.36 647.243 92.96C646.115 93.56 644.759 93.86 643.175 93.86ZM643.175 90.944C644.591 90.944 645.671 90.548 646.415 89.756C647.183 88.94 647.567 87.788 647.567 86.3V74.42C647.567 72.932 647.183 71.792 646.415 71C645.671 70.184 644.591 69.776 643.175 69.776C641.783 69.776 640.703 70.184 639.935 71C639.167 71.792 638.783 72.932 638.783 74.42V86.3C638.783 87.788 639.167 88.94 639.935 89.756C640.703 90.548 641.783 90.944 643.175 90.944ZM657.201 93.5V67.22H661.521L669.549 89.72C669.501 89.12 669.441 88.388 669.369 87.524C669.321 86.636 669.273 85.712 669.225 84.752C669.201 83.768 669.189 82.844 669.189 81.98V67.22H672.321V93.5H668.001L660.009 71C660.057 71.576 660.105 72.308 660.153 73.196C660.201 74.06 660.237 74.984 660.261 75.968C660.309 76.928 660.333 77.852 660.333 78.74V93.5H657.201ZM686.347 93.86C684.763 93.86 683.395 93.56 682.243 92.96C681.115 92.36 680.239 91.496 679.615 90.368C679.015 89.216 678.715 87.86 678.715 86.3V74.42C678.715 72.836 679.015 71.48 679.615 70.352C680.239 69.224 681.115 68.36 682.243 67.76C683.395 67.16 684.763 66.86 686.347 66.86C687.931 66.86 689.287 67.16 690.415 67.76C691.567 68.36 692.443 69.224 693.043 70.352C693.667 71.48 693.979 72.824 693.979 74.384V86.3C693.979 87.86 693.667 89.216 693.043 90.368C692.443 91.496 691.567 92.36 690.415 92.96C689.287 93.56 687.931 93.86 686.347 93.86ZM686.347 90.944C687.763 90.944 688.843 90.548 689.587 89.756C690.355 88.94 690.739 87.788 690.739 86.3V74.42C690.739 72.932 690.355 71.792 689.587 71C688.843 70.184 687.763 69.776 686.347 69.776C684.955 69.776 683.875 70.184 683.107 71C682.339 71.792 681.955 72.932 681.955 74.42V86.3C681.955 87.788 682.339 88.94 683.107 89.756C683.875 90.548 684.955 90.944 686.347 90.944ZM700.445 93.5V67.22H708.581C710.141 67.22 711.509 67.544 712.685 68.192C713.861 68.816 714.773 69.692 715.421 70.82C716.069 71.948 716.393 73.268 716.393 74.78C716.393 76.556 715.925 78.08 714.989 79.352C714.077 80.624 712.829 81.5 711.245 81.98L716.753 93.5H712.937L707.897 82.34H703.685V93.5H700.445ZM703.685 79.424H708.581C709.925 79.424 711.005 79.004 711.821 78.164C712.637 77.3 713.045 76.172 713.045 74.78C713.045 73.364 712.637 72.236 711.821 71.396C711.005 70.556 709.925 70.136 708.581 70.136H703.685V79.424ZM722.319 93.5V67.22H737.439V70.172H725.523V78.308H736.179V81.224H725.523V90.548H737.439V93.5H722.319ZM743.617 93.5V67.22H752.077C753.709 67.22 755.125 67.544 756.325 68.192C757.525 68.816 758.449 69.704 759.097 70.856C759.769 72.008 760.105 73.376 760.105 74.96C760.105 76.52 759.769 77.888 759.097 79.064C758.449 80.216 757.525 81.116 756.325 81.764C755.125 82.388 753.709 82.7 752.077 82.7H746.857V93.5H743.617ZM746.857 79.784H752.077C753.493 79.784 754.621 79.352 755.461 78.488C756.325 77.6 756.757 76.424 756.757 74.96C756.757 73.472 756.325 72.296 755.461 71.432C754.621 70.568 753.493 70.136 752.077 70.136H746.857V79.784ZM772.691 93.86C771.107 93.86 769.739 93.56 768.587 92.96C767.459 92.36 766.583 91.496 765.959 90.368C765.359 89.216 765.059 87.86 765.059 86.3V74.42C765.059 72.836 765.359 71.48 765.959 70.352C766.583 69.224 767.459 68.36 768.587 67.76C769.739 67.16 771.107 66.86 772.691 66.86C774.275 66.86 775.631 67.16 776.759 67.76C777.911 68.36 778.787 69.224 779.387 70.352C780.011 71.48 780.323 72.824 780.323 74.384V86.3C780.323 87.86 780.011 89.216 779.387 90.368C778.787 91.496 777.911 92.36 776.759 92.96C775.631 93.56 774.275 93.86 772.691 93.86ZM772.691 90.944C774.107 90.944 775.187 90.548 775.931 89.756C776.699 88.94 777.083 87.788 777.083 86.3V74.42C777.083 72.932 776.699 71.792 775.931 71C775.187 70.184 774.107 69.776 772.691 69.776C771.299 69.776 770.219 70.184 769.451 71C768.683 71.792 768.299 72.932 768.299 74.42V86.3C768.299 87.788 768.683 88.94 769.451 89.756C770.219 90.548 771.299 90.944 772.691 90.944Z"
		id="secondary" />
	<defs>
		<clipPath id="clip0_33_336">
			<rect width="226" height="103" fill="white" transform="translate(10 10)" />
		</clipPath>
	</defs>
</svg>
